<?xml version="1.0" encoding="UTF-8" standalone="no"?>
<svg
   width="75.162651mm"
   height="75.524673mm"
   viewBox="0 0 75.162649 75.524675"
   version="1.1"
   id="svg8"
   xmlns="http://www.w3.org/2000/svg"
   xmlns:svg="http://www.w3.org/2000/svg"
   xmlns:rdf="http://www.w3.org/1999/02/22-rdf-syntax-ns#"
   xmlns:cc="http://creativecommons.org/ns#"
   xmlns:dc="http://purl.org/dc/elements/1.1/">
  <defs
     id="defs2">
    <clipPath
       clipPathUnits="userSpaceOnUse"
       id="clipPath849">
      <path
         d="M 0,1269 H 2282 V 0 H 0 Z"
         id="path847" />
    </clipPath>
  </defs>
  <metadata
     id="metadata5">
    <rdf:RDF>
      <cc:Work
         rdf:about="">
        <dc:format>image/svg+xml</dc:format>
        <dc:type
           rdf:resource="http://purl.org/dc/dcmitype/StillImage" />
        <dc:title />
      </cc:Work>
    </rdf:RDF>
  </metadata>
  <g
     id="layer1"
     transform="translate(19.688582,-94.529469)">
    <g
       id="g845"
       clip-path="url(#clipPath849)"
       transform="matrix(0.35277777,0,0,-0.35277777,-383.48152,374.55836)">
      <g
         id="g851"
         transform="translate(1146.9414,770.7998)">
        <path
           d="M 0,0 C 7.389,1.249 14.756,2.635 22.158,3.875 26.799,-1.961 31.721,-7.56 36.453,-13.316 29.119,-14.724 21.73,-15.84 14.408,-17.304 9.641,-11.503 4.674,-5.859 0,0"
           style="fill:#8ec04e;fill-opacity:1;fill-rule:nonzero;stroke:none"
           id="path853" />
      </g>
      <g
         id="g855"
         transform="translate(1180.4883,752.7642)">
        <path
           d="M 0,0 C 7.311,1.261 14.646,2.487 21.922,3.909 26.744,-1.849 31.713,-7.493 36.33,-13.406 29.041,-14.679 21.73,-15.805 14.498,-17.35 9.564,-11.649 4.664,-5.915 0,0"
           style="fill:#8ec04e;fill-opacity:1;fill-rule:nonzero;stroke:none"
           id="path857" />
      </g>
      <g
         id="g859"
         transform="translate(1085.894,747.3335)">
        <path
           d="M 0,0 C 7.333,1.397 14.689,2.704 22.058,3.92 26.766,-1.802 31.599,-7.424 36.309,-13.146 29.029,-14.77 21.63,-15.77 14.307,-17.178 9.553,-11.434 4.663,-5.813 0,0"
           style="fill:#8ec04e;fill-opacity:1;fill-rule:nonzero;stroke:none"
           id="path861" />
      </g>
      <g
         id="g863"
         transform="translate(1153.2148,742.4995)">
        <path
           d="M 0,0 C 7.289,1.32 14.611,2.433 21.855,3.955 26.777,-1.746 31.656,-7.489 36.342,-13.394 29.02,-14.667 21.697,-15.904 14.396,-17.29 9.564,-11.556 4.654,-5.879 0,0"
           style="fill:#8ec04e;fill-opacity:1;fill-rule:nonzero;stroke:none"
           id="path865" />
      </g>
      <g
         id="g867"
         transform="translate(1126.4141,732.6211)">
        <path
           d="m 0,0 c 7.334,1.33 14.68,2.635 22.025,3.909 4.743,-5.779 9.655,-11.4 14.34,-17.224 -7.299,-1.374 -14.646,-2.468 -21.922,-3.966 C 9.564,-11.57 4.697,-5.858 0,0"
           style="fill:#8ec04e;fill-opacity:1;fill-rule:nonzero;stroke:none"
           id="path869" />
      </g>
      <g
         id="g871"
         transform="translate(1101.8901,728.2617)">
        <path
           d="m 0,0 c 7.391,1.352 14.768,2.828 22.227,3.818 4.596,-5.767 9.43,-11.344 14.172,-16.988 -7.311,-1.508 -14.69,-2.68 -22.036,-3.964 C 9.52,-11.469 4.687,-5.802 0,0"
           style="fill:#8ec04e;fill-opacity:1;fill-rule:nonzero;stroke:none"
           id="path873" />
      </g>
      <g
         id="g875"
         transform="translate(1191.459,722.2466)">
        <path
           d="M 0,0 C 7.291,1.295 14.613,2.432 21.867,3.93 26.768,-1.78 31.666,-7.502 36.332,-13.417 29.02,-14.658 21.699,-15.895 14.422,-17.314 9.576,-11.57 4.654,-5.892 0,0"
           style="fill:#8ec04e;fill-opacity:1;fill-rule:nonzero;stroke:none"
           id="path877" />
      </g>
      <g
         id="g879"
         transform="translate(1166.9473,717.9194)">
        <path
           d="m 0,0 c 7.311,1.274 14.623,2.513 21.912,3.909 4.82,-5.745 9.777,-11.4 14.43,-17.302 -7.299,-1.318 -14.635,-2.422 -21.875,-3.956 C 9.564,-11.636 4.662,-5.902 0,0"
           style="fill:#8ec04e;fill-opacity:1;fill-rule:nonzero;stroke:none"
           id="path881" />
      </g>
      <g
         id="g883"
         transform="translate(1142.4141,713.5381)">
        <path
           d="M 0,0 C 7.422,1.284 14.801,2.816 22.27,3.808 26.641,-2.096 31.889,-7.3 36.17,-13.26 28.961,-14.803 21.639,-15.794 14.406,-17.202 9.553,-11.513 4.674,-5.835 0,0"
           style="fill:#8ec04e;fill-opacity:1;fill-rule:nonzero;stroke:none"
           id="path885" />
      </g>
      <g
         id="g887"
         transform="translate(1117.8657,709.168)">
        <path
           d="M 0,0 C 7.345,1.396 14.71,2.782 22.113,3.841 26.89,-1.814 31.654,-7.47 36.365,-13.17 29.076,-14.646 21.718,-15.861 14.386,-17.09 9.498,-11.469 4.763,-5.713 0,0"
           style="fill:#8ec04e;fill-opacity:1;fill-rule:nonzero;stroke:none"
           id="path889" />
      </g>
      <g
         id="g891"
         transform="translate(1207.5254,703.2295)">
        <path
           d="m 0,0 c 7.297,1.172 14.59,2.446 21.844,3.863 4.853,-5.744 9.801,-11.409 14.418,-17.346 -7.276,-1.285 -14.59,-2.4 -21.832,-3.921 C 9.529,-11.681 4.562,-6.003 0,0"
           style="fill:#8ec04e;fill-opacity:1;fill-rule:nonzero;stroke:none"
           id="path893" />
      </g>
      <g
         id="g895"
         transform="translate(1182.9102,698.8037)">
        <path
           d="M 0,0 C 7.312,1.217 14.578,2.726 21.9,3.808 27.014,-1.646 31.576,-7.626 36.441,-13.305 29.107,-14.702 21.73,-15.817 14.398,-17.259 9.631,-11.493 4.686,-5.847 0,0"
           style="fill:#8ec04e;fill-opacity:1;fill-rule:nonzero;stroke:none"
           id="path897" />
      </g>
      <g
         id="g899"
         transform="translate(1158.375,694.4653)">
        <path
           d="m 0,0 c 7.379,1.297 14.734,2.739 22.146,3.82 4.745,-5.689 9.51,-11.345 14.262,-17.021 -7.275,-1.545 -14.646,-2.637 -21.955,-3.977 C 9.541,-11.534 4.766,-5.768 0,0"
           style="fill:#8ec04e;fill-opacity:1;fill-rule:nonzero;stroke:none"
           id="path901" />
      </g>
      <g
         id="g903"
         transform="translate(1133.8965,690.0728)">
        <path
           d="m 0,0 c 7.344,1.453 14.723,2.793 22.123,3.875 4.676,-5.7 9.553,-11.253 14.16,-17.011 -7.299,-1.531 -14.652,-2.749 -22.01,-3.931 C 9.494,-11.388 4.707,-5.722 0,0"
           style="fill:#8ec04e;fill-opacity:1;fill-rule:nonzero;stroke:none"
           id="path905" />
      </g>
      <g
         id="g907"
         transform="translate(1076.4326,724.937)">
        <path
           d="M 0,0 C 2.669,6.974 5.069,14.049 7.749,21.022 12.594,15.321 17.358,9.542 22.192,3.832 19.51,-3.119 17.132,-10.193 14.44,-17.155 9.596,-11.455 4.831,-5.699 0,0"
           style="fill:#288357;fill-opacity:1;fill-rule:nonzero;stroke:none"
           id="path909" />
      </g>
      <g
         id="g911"
         transform="translate(1053.8887,742.4106)">
        <path
           d="M 0,0 C 4.79,-5.733 9.587,-11.457 14.409,-17.158 11.718,-24.119 9.328,-31.193 6.67,-38.167 1.792,-32.545 -2.828,-26.709 -7.761,-21.134 -5.215,-14.071 -2.747,-6.983 0,0"
           style="fill:#288357;fill-opacity:1;fill-rule:nonzero;stroke:none"
           id="path913" />
      </g>
      <g
         id="g915"
         transform="translate(1100.1899,726.7861)">
        <path
           d="m 0,0 c 4.923,-5.633 9.653,-11.423 14.44,-17.168 -2.691,-6.917 -5.113,-13.935 -7.682,-20.898 -4.922,5.61 -9.643,11.4 -14.452,17.112 C -5.148,-13.958 -2.715,-6.928 0,0"
           style="fill:#288357;fill-opacity:1;fill-rule:nonzero;stroke:none"
           id="path917" />
      </g>
      <g
         id="g919"
         transform="translate(1108.5479,686.749)">
        <path
           d="M 0,0 C 2.456,7.007 4.913,14.038 7.694,20.93 12.526,15.355 17.192,9.645 21.979,4.022 19.612,-3.075 16.933,-10.06 14.387,-17.088 9.487,-11.478 4.743,-5.733 0,0"
           style="fill:#288357;fill-opacity:1;fill-rule:nonzero;stroke:none"
           id="path921" />
      </g>
      <g
         id="g923"
         transform="translate(1091.583,703.3999)">
        <path
           d="M 0,0 C 4.99,-5.463 9.497,-11.355 14.418,-16.876 12.076,-24.018 9.395,-31.047 6.782,-38.088 1.938,-32.456 -2.737,-26.654 -7.627,-21.054 -5.137,-14.013 -2.534,-7.018 0,0"
           style="fill:#288357;fill-opacity:1;fill-rule:nonzero;stroke:none"
           id="path925" />
      </g>
      <g
         id="g927"
         transform="translate(1067.1045,699.1299)">
        <path
           d="M 0,0 C 4.91,-5.644 9.653,-11.423 14.441,-17.169 11.839,-24.152 9.417,-31.193 6.713,-38.144 1.914,-32.41 -2.93,-26.71 -7.695,-20.953 -5.048,-13.992 -2.614,-6.962 0,0"
           style="fill:#288357;fill-opacity:1;fill-rule:nonzero;stroke:none"
           id="path929" />
      </g>
      <g
         id="g931"
         transform="translate(1132.1602,688.6758)">
        <path
           d="M 0,0 C 4.9,-5.588 9.576,-11.367 14.398,-17.022 11.975,-24.084 9.35,-31.081 6.77,-38.087 1.869,-32.545 -2.691,-26.71 -7.614,-21.189 -5.295,-14.048 -2.557,-7.063 0,0"
           style="fill:#288357;fill-opacity:1;fill-rule:nonzero;stroke:none"
           id="path933" />
      </g>
      <g
         id="g935"
         transform="translate(1222.0566,683.7422)"
         style="fill:#4d4d4d">
        <path
           d="M 0,0 C 7.379,1.464 14.814,2.657 22.227,3.964 19.703,-2.985 17.09,-9.913 14.689,-16.908 7.355,-18.533 -0.066,-19.715 -7.48,-20.887 -5.082,-13.891 -2.365,-7.007 0,0"
           style="fill:#4d4d4d;fill-opacity:1;fill-rule:nonzero;stroke:none"
           id="path937" />
      </g>
      <g
         id="g939"
         transform="translate(1099.9302,663.4077)">
        <path
           d="M 0,0 C 2.66,6.951 5.069,14.001 7.706,20.965 12.629,15.376 17.259,9.531 22.136,3.909 19.601,-3.143 17.112,-10.205 14.397,-17.19 9.632,-11.434 4.776,-5.745 0,0"
           style="fill:#288357;fill-opacity:1;fill-rule:nonzero;stroke:none"
           id="path941" />
      </g>
      <g
         id="g943"
         transform="translate(1197.6582,679.3369)"
         style="fill:#4d4d4d">
        <path
           d="M 0,0 C 7.219,1.756 14.688,2.579 21.986,4.089 19.689,-3.008 16.918,-9.936 14.451,-16.976 7.084,-18.317 -0.271,-19.748 -7.674,-20.807 -5.025,-13.901 -2.75,-6.861 0,0"
           style="fill:#4d4d4d;fill-opacity:1;fill-rule:nonzero;stroke:none"
           id="path945" />
      </g>
      <g
         id="g947"
         transform="translate(1083.1665,680.0586)">
        <path
           d="M 0,0 C 4.811,-5.746 9.689,-11.434 14.42,-17.247 11.729,-24.164 9.353,-31.205 6.704,-38.145 1.827,-32.479 -2.939,-26.722 -7.727,-20.976 -5.101,-14.003 -2.702,-6.94 0,0"
           style="fill:#288357;fill-opacity:1;fill-rule:nonzero;stroke:none"
           id="path949" />
      </g>
      <g
         id="g951"
         transform="translate(1173.2324,675.2822)"
         style="fill:#4d4d4d">
        <path
           d="M 0,0 C 7.324,1.126 14.602,2.522 21.889,3.818 19.488,-3.301 16.887,-10.365 14.207,-17.395 6.873,-18.521 -0.426,-19.931 -7.738,-21.203 -5.236,-14.116 -2.713,-7.02 0,0"
           style="fill:#4d4d4d;fill-opacity:1;fill-rule:nonzero;stroke:none"
           id="path953" />
      </g>
      <g
         id="g955"
         transform="translate(1031.2241,656.0967)">
        <path
           d="M 0,0 C 2.635,6.995 5.091,14.071 7.728,21.078 12.527,15.333 17.372,9.621 22.147,3.854 19.522,-3.098 17.191,-10.149 14.396,-17.043 9.508,-11.446 4.844,-5.644 0,0"
           style="fill:#288357;fill-opacity:1;fill-rule:nonzero;stroke:none"
           id="path957" />
      </g>
      <g
         id="g959"
         transform="translate(1148.6641,670.875)"
         style="fill:#4d4d4d">
        <path
           d="M 0,0 C 7.346,1.218 14.645,2.716 22.012,3.787 19.377,-3.253 16.988,-10.373 14.217,-17.358 6.895,-18.417 -0.359,-19.802 -7.625,-21.176 -5.307,-14.035 -2.637,-7.017 0,0"
           style="fill:#4d4d4d;fill-opacity:1;fill-rule:nonzero;stroke:none"
           id="path961" />
      </g>
      <g
         id="g963"
         transform="translate(1123.6655,665.2891)">
        <path
           d="M 0,0 C 4.868,-5.71 9.733,-11.423 14.454,-17.269 11.727,-24.164 9.387,-31.214 6.727,-38.145 1.883,-32.421 -2.963,-26.72 -7.693,-20.907 -5.068,-13.968 -2.656,-6.939 0,0"
           style="fill:#288357;fill-opacity:1;fill-rule:nonzero;stroke:none"
           id="path965" />
      </g>
      <g
         id="g967"
         transform="translate(1213.7988,660.5801)"
         style="fill:#4d4d4d">
        <path
           d="m 0,0 c 7.309,1.061 14.576,2.434 21.842,3.796 -2.33,-7.13 -4.998,-14.15 -7.625,-21.167 C 6.873,-18.586 -0.439,-20.052 -7.807,-21.167 -5.182,-14.114 -2.771,-6.995 0,0"
           style="fill:#4d4d4d;fill-opacity:1;fill-rule:nonzero;stroke:none"
           id="path969" />
      </g>
      <g
         id="g971"
         transform="translate(1091.4819,639.8633)">
        <path
           d="M 0,0 C 2.49,7.075 4.957,14.149 7.75,21.111 12.38,15.366 17.358,9.892 21.899,4.08 19.816,-3.074 16.853,-9.969 14.418,-17.031 9.496,-11.444 4.877,-5.609 0,0"
           style="fill:#288357;fill-opacity:1;fill-rule:nonzero;stroke:none"
           id="path973" />
      </g>
      <g
         id="g975"
         transform="translate(1189.2188,656.1768)"
         style="fill:#4d4d4d">
        <path
           d="M 0,0 C 7.346,1.171 14.645,2.578 21.967,3.818 19.42,-3.268 16.943,-10.377 14.207,-17.382 6.883,-18.487 -0.381,-19.86 -7.672,-21.202 -5.295,-14.071 -2.658,-7.029 0,0"
           style="fill:#4d4d4d;fill-opacity:1;fill-rule:nonzero;stroke:none"
           id="path977" />
      </g>
      <g
         id="g979"
         transform="translate(1107.7588,620.6797)">
        <path
           d="M 0,0 C 1.758,7.267 4.991,14.159 7.391,21.267 12.122,15.544 17.079,10.015 21.608,4.146 19.501,-2.996 16.629,-9.902 14.083,-16.898 9.407,-11.254 4.506,-5.779 0,0"
           style="fill:#288357;fill-opacity:1;fill-rule:nonzero;stroke:none"
           id="path981" />
      </g>
      <g
         id="g983"
         transform="translate(1086.2319,625.8936)">
        <path
           d="M 0,0 C 4.923,-5.609 9.609,-11.41 14.442,-17.11 11.884,-24.118 9.407,-31.169 6.725,-38.13 1.915,-32.397 -2.94,-26.698 -7.693,-20.919 -5.035,-13.979 -2.625,-6.949 0,0"
           style="fill:#288357;fill-opacity:1;fill-rule:nonzero;stroke:none"
           id="path985" />
      </g>
      <g
         id="g987"
         transform="translate(1098.8931,597.5518)">
        <path
           d="M 0,0 C 2.705,6.95 5.071,14.025 7.763,20.987 12.562,15.243 17.405,9.541 22.181,3.797 19.535,-3.164 17.157,-10.218 14.454,-17.145 9.543,-11.502 4.823,-5.711 0,0"
           style="fill:#288357;fill-opacity:1;fill-rule:nonzero;stroke:none"
           id="path989" />
      </g>
      <g
         id="g991"
         transform="translate(1202.5566,607.623)"
         style="fill:#4d4d4d">
        <path
           d="M 0,0 C 7.309,1.058 14.564,2.49 21.844,3.807 19.49,-3.313 16.842,-10.341 14.205,-17.37 6.848,-18.541 -0.451,-20.051 -7.807,-21.157 -5.182,-14.104 -2.77,-6.984 0,0"
           style="fill:#4d4d4d;fill-opacity:1;fill-rule:nonzero;stroke:none"
           id="path993" />
      </g>
      <g
         id="g995"
         transform="translate(1147.6836,605.0879)"
         style="fill:#4d4d4d">
        <path
           d="m 0,0 c 7.346,1.127 14.643,2.546 21.979,3.765 -2.547,-6.997 -5.057,-14.016 -7.672,-21 C 7.008,-18.644 -0.303,-19.984 -7.66,-21.076 -5.236,-14.002 -2.67,-6.984 0,0"
           style="fill:#4d4d4d;fill-opacity:1;fill-rule:nonzero;stroke:none"
           id="path997" />
      </g>
      <g
         id="g999"
         transform="translate(1123.1479,600.582)"
         style="fill:#4d4d4d">
        <path
           d="M 0,0 C 7.278,1.556 14.655,2.58 21.969,3.988 19.545,-3.03 16.842,-9.959 14.442,-16.987 7.11,-18.474 -0.271,-19.793 -7.684,-20.885 -5.148,-13.911 -2.815,-6.85 0,0"
           style="fill:#4d4d4d;fill-opacity:1;fill-rule:nonzero;stroke:none"
           id="path1001" />
      </g>
      <g
         id="g1003"
         transform="translate(1074.6929,656.7051)">
        <path
           d="M 0,0 C 4.811,-5.744 9.688,-11.434 14.419,-17.247 11.728,-24.163 9.351,-31.203 6.704,-38.144 1.824,-32.478 -2.939,-26.721 -7.728,-20.976 -5.104,-14.002 -2.702,-6.94 0,0"
           style="fill:#288357;fill-opacity:1;fill-rule:nonzero;stroke:none"
           id="path1005" />
      </g>
      <g
         id="g1007"
         transform="translate(1140.0684,647.5068)"
         style="fill:#4d4d4d">
        <path
           d="M 0,0 C 7.344,1.217 14.645,2.716 22.012,3.785 19.377,-3.255 16.988,-10.375 14.217,-17.359 6.895,-18.417 -0.361,-19.804 -7.627,-21.178 -5.307,-14.036 -2.635,-7.019 0,0"
           style="fill:#4d4d4d;fill-opacity:1;fill-rule:nonzero;stroke:none"
           id="path1009" />
      </g>
      <g
         id="g1011"
         transform="translate(1131.5684,624.1992)"
         style="fill:#4d4d4d">
        <path
           d="M 0,0 C 7.346,1.217 14.646,2.716 22.014,3.786 19.377,-3.256 16.99,-10.375 14.217,-17.359 6.896,-18.419 -0.359,-19.805 -7.625,-21.178 -5.305,-14.035 -2.635,-7.018 0,0"
           style="fill:#4d4d4d;fill-opacity:1;fill-rule:nonzero;stroke:none"
           id="path1013" />
      </g>
      <g
         id="g1015"
         transform="translate(1156.082,628.4307)"
         style="fill:#4d4d4d">
        <path
           d="M 0,0 C 7.346,1.127 14.645,2.544 21.979,3.762 19.434,-3.233 16.92,-10.251 14.307,-17.237 7.008,-18.646 -0.305,-19.985 -7.66,-21.079 -5.238,-14.003 -2.67,-6.985 0,0"
           style="fill:#4d4d4d;fill-opacity:1;fill-rule:nonzero;stroke:none"
           id="path1017" />
      </g>
      <g
         id="g1019"
         transform="translate(1205.373,637.0703)"
         style="fill:#4d4d4d">
        <path
           d="M 0,0 C 7.312,1.06 14.578,2.435 21.844,3.795 19.512,-3.335 16.842,-10.353 14.217,-17.37 6.871,-18.588 -0.437,-20.052 -7.807,-21.167 -5.182,-14.115 -2.771,-6.995 0,0"
           style="fill:#4d4d4d;fill-opacity:1;fill-rule:nonzero;stroke:none"
           id="path1021" />
      </g>
      <g
         id="g1023"
         transform="translate(1175.7852,617.0586)"
         style="fill:#4d4d4d">
        <path
           d="M 0,0 C 7.346,1.172 14.645,2.578 21.967,3.818 19.422,-3.268 16.941,-10.377 14.205,-17.383 6.883,-18.486 -0.381,-19.861 -7.672,-21.203 -5.297,-14.072 -2.66,-7.031 0,0"
           style="fill:#4d4d4d;fill-opacity:1;fill-rule:nonzero;stroke:none"
           id="path1025" />
      </g>
      <g
         id="g1027"
         transform="translate(1102.5903,774.6011)">
        <path
           d="M 0,0 C 7.389,1.251 14.756,2.636 22.157,3.875 26.798,-1.961 31.722,-7.56 36.453,-13.316 29.119,-14.725 21.729,-15.838 14.407,-17.304 9.641,-11.502 4.673,-5.857 0,0"
           style="fill:#8ec04e;fill-opacity:1;fill-rule:nonzero;stroke:none"
           id="path1029" />
      </g>
      <g
         id="g1031"
         transform="translate(1163.8223,789.9077)">
        <path
           d="M 0,0 C 7.389,1.249 14.756,2.635 22.158,3.875 26.799,-1.96 31.723,-7.56 36.453,-13.316 29.121,-14.723 21.73,-15.839 14.408,-17.303 9.643,-11.503 4.674,-5.859 0,0"
           style="fill:#8ec04e;fill-opacity:1;fill-rule:nonzero;stroke:none"
           id="path1033" />
      </g>
    </g>
  </g>
</svg>
